<svg preserveAspectRatio="none" overflow="visible" style="display: block;" width="337" height="337" viewBox="0 0 337 337" fill="none" xmlns="http://www.w3.org/2000/svg">
<g id="boxicons:location-alt-2-filled">
<path id="Vector" d="M253.032 207.674C247.416 216.66 241.237 224.945 235.199 232.387C265.108 239.127 280.835 249.097 280.835 253.59C280.835 260.751 242.22 281.673 168.501 281.673C94.7826 281.673 56.1681 260.751 56.1681 253.59C56.1681 249.097 71.8947 239.127 101.803 232.387C95.7656 224.945 89.7276 216.66 83.9706 207.674C51.3939 216.66 28.0847 231.685 28.0847 253.59C28.0847 292.205 100.821 309.757 168.501 309.757C236.182 309.757 308.918 292.205 308.918 253.59C308.918 231.685 285.468 216.66 253.032 207.674Z" fill="#FCFAFA" fill-opacity="0.05"/>
<path id="Vector_2" d="M84.2508 118.512C83.97 190.124 156.846 247.414 159.935 249.801C162.463 251.767 165.552 252.75 168.501 252.75C171.45 252.75 174.539 251.767 177.066 249.801C180.155 247.414 253.032 190.124 252.751 118.512C252.751 68.6638 214.979 28.0834 168.501 28.0834C122.023 28.0834 84.2508 68.6638 84.2508 118.512ZM196.584 112.333C196.584 127.779 183.947 140.417 168.501 140.417C153.055 140.417 140.417 127.779 140.417 112.333C140.417 96.8876 153.055 84.2501 168.501 84.2501C183.947 84.2501 196.584 96.8876 196.584 112.333Z" fill="#FCFAFA" fill-opacity="0.05"/>
</g>
</svg>
